<svg width="16" height="16" viewBox="0 0 16 16" fill="none" xmlns="http://www.w3.org/2000/svg">
<path d="M7.99337 1.33331C4.31337 1.33331 1.33337 4.31998 1.33337 7.99998C1.33337 11.68 4.31337 14.6666 7.99337 14.6666C11.68 14.6666 14.6667 11.68 14.6667 7.99998C14.6667 4.31998 11.68 1.33331 7.99337 1.33331ZM12.6134 5.33331H10.6467C10.4334 4.49998 10.1267 3.69998 9.72671 2.95998C10.9534 3.37998 11.9734 4.23331 12.6134 5.33331ZM8.00004 2.69331C8.55337 3.49331 8.98671 4.37998 9.27337 5.33331H6.72671C7.01337 4.37998 7.44671 3.49331 8.00004 2.69331ZM2.84004 9.33331C2.73337 8.90665 2.66671 8.45998 2.66671 7.99998C2.66671 7.53998 2.73337 7.09331 2.84004 6.66665H5.09337C5.04004 7.10665 5.00004 7.54665 5.00004 7.99998C5.00004 8.45331 5.04004 8.89331 5.09337 9.33331H2.84004ZM3.38671 10.6666H5.35337C5.56671 11.5 5.87337 12.3 6.27337 13.04C5.04671 12.62 4.02671 11.7733 3.38671 10.6666ZM5.35337 5.33331H3.38671C4.02671 4.22665 5.04671 3.37998 6.27337 2.95998C5.87337 3.69998 5.56671 4.49998 5.35337 5.33331ZM8.00004 13.3066C7.44671 12.5066 7.01337 11.62 6.72671 10.6666H9.27337C8.98671 11.62 8.55337 12.5066 8.00004 13.3066ZM9.56004 9.33331H6.44004C6.38004 8.89331 6.33337 8.45331 6.33337 7.99998C6.33337 7.54665 6.38004 7.09998 6.44004 6.66665H9.56004C9.62004 7.09998 9.66671 7.54665 9.66671 7.99998C9.66671 8.45331 9.62004 8.89331 9.56004 9.33331ZM9.72671 13.04C10.1267 12.3 10.4334 11.5 10.6467 10.6666H12.6134C11.9734 11.7666 10.9534 12.62 9.72671 13.04ZM10.9067 9.33331C10.96 8.89331 11 8.45331 11 7.99998C11 7.54665 10.96 7.10665 10.9067 6.66665H13.16C13.2667 7.09331 13.3334 7.53998 13.3334 7.99998C13.3334 8.45998 13.2667 8.90665 13.16 9.33331H10.9067Z" fill="#555C70"/>
</svg>
