<svg xmlns="http://www.w3.org/2000/svg" width="141" height="140" viewBox="0 0 141 140">
    <g fill="none" fill-rule="evenodd">
        <g fill="#00A1B0">
            <g>
                <g>
                    <g>
                        <path d="M90.895 18c4.55 0 8.255 3.622 8.389 8.14l.003.253V39.85h7.238c4.541 0 8.241 3.608 8.388 8.121l.004.257v63.957c0 5.305-4.215 9.645-9.536 9.81l-.24.003-.039.002H34.408c-4.56 0-8.27-3.629-8.404-8.156l-.004-.252v-87.2c0-2.229.887-4.367 2.465-5.941 1.504-1.5 3.516-2.37 5.626-2.446l.317-.005h56.487zm0 4H34.403c-1.166-.003-2.287.459-3.113 1.283-.77.769-1.226 1.795-1.284 2.877l-.006.233v87.199c0 2.363 1.86 4.292 4.195 4.403l.213.005 62.787.001c-1.199-1.628-1.908-3.639-1.908-5.816V26.393c0-2.355-1.852-4.277-4.18-4.388L90.895 22zm15.63 21.85h-7.238v68.335c0 3.212 2.604 5.815 5.784 5.815l.217-.003c3.132-.098 5.63-2.67 5.63-5.812V48.232c-.007-2.421-1.972-4.382-4.393-4.382zm-18.819 58.489c1.105 0 2 .895 2 2 0 1.054-.816 1.918-1.85 1.994l-.15.006H67.231c-1.105 0-2-.896-2-2 0-1.055.816-1.918 1.85-1.995l.15-.005h20.475zm-29.525 0c1.105 0 2 .895 2 2 0 1.054-.816 1.918-1.85 1.994l-.15.006h-20.46c-1.104 0-2-.896-2-2 0-1.055.817-1.918 1.852-1.995l.149-.005h20.46zM87.706 89.96c1.105 0 2 .895 2 2 0 1.054-.816 1.918-1.85 1.995l-.15.005H67.231c-1.105 0-2-.895-2-2 0-1.054.816-1.918 1.85-1.995l.15-.005h20.475zm-29.525 0c1.105 0 2 .895 2 2 0 1.054-.816 1.918-1.85 1.995l-.15.005h-20.46c-1.104 0-2-.895-2-2 0-1.054.817-1.918 1.852-1.995l.149-.005h20.46zm29.525-30.166c1.105 0 2 .896 2 2v18.569c0 1.104-.895 2-2 2H37.722c-1.105 0-2-.896-2-2V61.794c0-1.104.895-2 2-2zm-2 4H39.721v14.568h45.985V63.794zm-22.992-16.66c1.105 0 2 .896 2 2 0 1.054-.816 1.918-1.85 1.995l-.15.005H37.722c-1.105 0-2-.895-2-2 0-1.054.816-1.918 1.85-1.994l.15-.006h24.992zm24.992-12.379c1.105 0 2 .896 2 2 0 1.055-.816 1.918-1.85 1.995l-.15.005H37.722c-1.105 0-2-.895-2-2 0-1.054.816-1.918 1.85-1.994l.15-.006h49.984z" transform="translate(-150.000000, -798.000000) translate(149.000000, 658.000000) translate(1.000000, 140.000000) translate(0.894805, 0.000000)"/>
                    </g>
                </g>
            </g>
        </g>
    </g>
</svg>
