<svg width="140" height="140" xmlns="http://www.w3.org/2000/svg"><g transform="translate(13.9315 9.7599)" stroke="#00A1B0" fill="none" fill-rule="evenodd"><rect stroke-width="4" x="6.0685" y="54.2401" width="100" height="56" rx="5"/><path d="M104.6146 53.342c.7029.4386 1.1614 1.1205 1.3345 1.8685.1732.748.061 1.562-.3775 2.2648a3 3 0 0 1-.943.9482L57.579 88.1416a2.9975 2.9975 0 0 1-1.594.4636 2.9975 2.9975 0 0 1-1.5963-.4548L7.8153 59.088c-.7028-.4386-1.1613-1.1205-1.3345-1.8685-.1731-.748-.061-1.562.3776-2.2648a3 3 0 0 1 .943-.9483l47.0496-29.718a2.9975 2.9975 0 0 1 1.5939-.4636 2.9975 2.9975 0 0 1 1.5964.4548l29.1403 18.184Z" stroke-width="4" fill="#FFF"/><path stroke-width="4" stroke-linecap="square" d="m7.5685 108.7401 37.5-24.5m59.5001 24.5-37.5-24.5"/><path d="M78.8084 10.2401c-5.1637 0-9.3545 4.1908-9.3545 9.3545v7.4837H17.0685v-9.3546c0-4.1347 3.3583-7.4836 7.4837-7.4836h54.2562Z" stroke-width="4" fill="#FFF" stroke-linejoin="round"/><path d="m57.78 87.5776 30.3827-18.8375V19.5947c0-5.1637-4.1814-9.3545-9.3545-9.3545-5.1637 0-9.3545 4.1908-9.3545 9.3545v7.4836l-45.8334.002V68.74l31.021 18.8515a3 3 0 0 0 3.1388-.014Z" stroke-width="4" fill="#FFF" stroke-linejoin="round"/><path d="M54.9296 70.2401c3.5657 0 6.3693-.6221 9.0925-2.014.815-.4146 1.1293-1.3912.7-2.187-.4204-.7951-1.4258-1.1019-2.2415-.683-2.2541 1.1539-4.5133 1.6422-7.5519 1.6422-7.2678 0-12.539-5.315-12.539-12.6442 0-4.287 1.4881-8.2668 4.181-11.1966 2.8259-3.0205 6.8074-4.68 11.2186-4.68 7.1573 0 11.9673 4.6626 11.9673 11.6024 0 6.0762-3.3708 9.2563-6.7015 9.2563-.4122 0-.9743-.0817-1.3554-.497-.3588-.3675-.536-.9289-.5405-1.664l4.3627-11.326c.31-.8038-.1505-1.7327-.9565-2.0828-1.5852-.6873-3.6139-1.067-5.7138-1.067-3.5346 0-6.8074 1.3398-9.2173 3.7727-2.2584 2.2903-3.5524 5.4576-3.5524 8.6812 0 4.879 3.41 7.4282 6.7762 7.4282 2.2852 0 4.2515-.73 5.8866-2.1652a4.2 4.2 0 0 0 .5005.6179c.9039.994 2.2584 1.5467 3.8001 1.5467 4.9783 0 10.0232-4.295 10.0232-12.4973 0-8.7378-6.2891-14.8435-15.289-14.8435-5.355 0-10.2139 2.0394-13.6816 5.7522-3.2394 3.5275-5.0294 8.2762-5.0294 13.3625 0 9.2043 6.6704 15.8853 15.8609 15.8853h.0002Zm3.0386-13.9796c-1.3154 2.0957-2.9407 3.0724-5.1021 3.0767-1.6609 0-3.4545-1.3094-3.4545-4.1917 0-2.3939.9565-4.7407 2.6263-6.4342 1.7714-1.7934 4.1946-2.7787 6.8209-2.7787 1.0232 0 2.042.1164 2.9584.337l-3.849 9.9909Z" stroke-width=".5" fill="#00A1B0" fill-rule="nonzero"/></g></svg>