<svg xmlns="http://www.w3.org/2000/svg" width="141" height="140" viewBox="0 0 141 140">
    <g fill="none" fill-rule="evenodd">
        <g fill="#00A1B0">
            <g>
                <g>
                    <g>
                        <path d="M91.198 18c3.314 0 6 2.686 6 6v.504l12.253 1.675c4.343.747 7.325 4.758 6.83 9.06l-.033.248-9.1 75.51c-.18 2.14-1.217 4.116-2.877 5.48-1.581 1.298-3.598 1.935-5.664 1.782l-.31-.03-1.453-.192c-.834 2.311-3.047 3.963-5.646 3.963H30.323c-3.314 0-6-2.686-6-6V24c0-3.314 2.686-6 6-6zm0 4H30.323c-1.105 0-2 .895-2 2v92c0 1.105.895 2 2 2h60.875c.88 0 1.626-.567 1.894-1.356-.171-.343-.244-.739-.19-1.147.04-.298.143-.573.295-.811L93.198 24c0-1.105-.895-2-2-2zm6 6.541v85.508l1.584.21c1.061.12 2.125-.195 2.95-.873.766-.63 1.265-1.521 1.41-2.555l9.141-75.872c.326-2.228-1.129-4.314-3.242-4.788l-.2-.04-11.643-1.59zm-10.903 74.776c1.104 0 2 .896 2 2 0 1.055-.816 1.918-1.851 1.995l-.15.005H35.306c-1.104 0-2-.895-2-2 0-1.054.816-1.918 1.85-1.994l.15-.006h50.99zm0-10.615c1.104 0 2 .895 2 2 0 1.054-.816 1.918-1.851 1.994l-.15.006H35.306c-1.104 0-2-.896-2-2 0-1.055.816-1.919 1.85-1.995l.15-.005h50.99zm0-10.616c1.104 0 2 .895 2 2 0 1.054-.816 1.918-1.851 1.995l-.15.005H35.306c-1.104 0-2-.895-2-2 0-1.054.816-1.918 1.85-1.994l.15-.006h50.99zM55.122 47.711c2.762 0 5 2.239 5 5V69.56c0 2.761-2.238 5-5 5H38.274c-2.762 0-5-2.239-5-5V52.71c0-2.761 2.238-5 5-5zm0 4H38.274c-.552 0-1 .448-1 1V69.56c0 .552.448 1 1 1h16.848c.553 0 1-.448 1-1V52.71c0-.552-.447-1-1-1zm31.22 11.625c1.104 0 2 .895 2 2 0 1.054-.816 1.918-1.851 1.995l-.15.005H65.237c-1.104 0-2-.895-2-2 0-1.054.816-1.918 1.85-1.994l.15-.006h21.106zm0-8.386c1.104 0 2 .896 2 2 0 1.055-.816 1.919-1.851 1.995l-.15.005H65.237c-1.104 0-2-.895-2-2 0-1.054.816-1.918 1.85-1.994l.15-.006h21.106zm-1.247-28.046c1.767 0 3.2 1.433 3.2 3.2v5.075c0 1.767-1.433 3.2-3.2 3.2H36.427c-1.768 0-3.2-1.433-3.2-3.2v-5.075c0-1.767 1.432-3.2 3.2-3.2zm-.801 3.999H37.226v3.475h47.068v-3.475z" transform="translate(-970.000000, -798.000000) translate(149.000000, 658.000000) translate(821.000000, 140.000000) translate(0.217601, 0.000000)"/>
                    </g>
                </g>
            </g>
        </g>
    </g>
</svg>
