<svg xmlns="http://www.w3.org/2000/svg" width="141" height="140" viewBox="0 0 141 140">
    <g fill="none" fill-rule="evenodd">
        <g fill="#00A1B0">
            <g>
                <g>
                    <g>
                        <path d="M97.816 18c1.054 0 1.918.816 1.995 1.85l.005.15v7.28h16.103c3.238 0 5.877 2.566 5.996 5.776l.004.225V116c0 3.314-2.687 6-6 6H24.09c-3.313 0-6-2.686-6-6V33.28c0-3.313 2.687-6 6-6h16.102l.001-7.28c0-1.105.895-2 2-2 1.054 0 1.918.816 1.995 1.85l.005.15v7.28h51.622l.001-7.28c0-1.105.896-2 2-2zm20.102 40.889H22.09V116c0 1.054.816 1.918 1.851 1.995l.15.005h91.828c1.104 0 2-.895 2-2V58.889zM46.992 79.058c2.762 0 5 2.238 5 5v13.22c0 2.76-2.238 5-5 5h-13.22c-2.76 0-5-2.24-5-5v-13.22c0-2.762 2.24-5 5-5zm59.416 0c2.762 0 5 2.238 5 5v13.22c0 2.76-2.238 5-5 5h-13.22c-2.76 0-5-2.24-5-5v-13.22c0-2.762 2.24-5 5-5zm-59.416 4h-13.22c-.552 0-1 .448-1 1v13.22c0 .552.448 1 1 1h13.22c.552 0 1-.448 1-1v-13.22c0-.552-.448-1-1-1zm59.416 0h-13.22c-.552 0-1 .448-1 1v13.22c0 .552.448 1 1 1h13.22c.552 0 1-.448 1-1v-13.22c0-.552-.448-1-1-1zM78.36 70.675c2.761 0 5 2.239 5 5V92.37c0 2.762-2.239 5-5 5H61.665c-2.762 0-5-2.238-5-5V75.675c0-2.761 2.238-5 5-5zm0 4H61.665c-.553 0-1 .448-1 1V92.37c0 .553.447 1 1 1H78.36c.552 0 1-.447 1-1V75.675c0-.552-.448-1-1-1zm-1.65 6.052c.637.834.517 2.008-.25 2.698l-.126.105-6.988 5.335c-.75.572-1.788.539-2.498-.057l-.13-.119-3.244-3.244c-.78-.781-.78-2.048 0-2.829.74-.74 1.916-.779 2.701-.116l.128.116 2.006 2.007 5.598-4.272c.878-.67 2.133-.502 2.803.376zM40.192 31.28H24.09c-1.104 0-2 .896-2 2V54.89h95.828V33.281c0-1.054-.815-1.918-1.85-1.995l-.15-.005-16.103-.001.001 4.702c2.98.848 5.18 3.544 5.284 6.77l.004.24c0 4.025-3.263 7.288-7.288 7.288s-7.288-3.263-7.288-7.288c0-3.332 2.235-6.14 5.288-7.01V31.28H44.191l.001 4.702c2.979.848 5.18 3.544 5.284 6.77l.004.24c0 4.025-3.263 7.288-7.288 7.288s-7.288-3.263-7.288-7.288c0-3.332 2.235-6.14 5.288-7.01V31.28zm3.382 8.727l-.069.064c-.351.306-.81.49-1.312.49-.536 0-1.022-.21-1.381-.553-1.126.52-1.907 1.661-1.907 2.984 0 1.816 1.472 3.288 3.288 3.288 1.816 0 3.288-1.472 3.288-3.288 0-1.323-.781-2.463-1.907-2.985zm55.623 0l-.069.064c-.35.306-.81.49-1.312.49-.536 0-1.022-.21-1.381-.553-1.126.52-1.907 1.661-1.907 2.984 0 1.816 1.472 3.288 3.288 3.288 1.816 0 3.288-1.472 3.288-3.288 0-1.323-.781-2.463-1.907-2.985z" transform="translate(-560.000000, -798.000000) translate(149.000000, 658.000000) translate(411.985158, 140.000000) translate(0.000000, 0.000000)"/>
                    </g>
                </g>
            </g>
        </g>
    </g>
</svg>
