<svg width="16" height="16" viewBox="0 0 16 16" fill="none" xmlns="http://www.w3.org/2000/svg">
<path d="M5.33012 2.00446C5.36076 1.96255 5.41267 1.95786 5.45458 1.94128C5.59655 1.88592 5.74196 1.839 5.8855 1.78832C6.00527 1.7461 6.1313 1.72076 6.25451 1.68886C6.30048 1.67697 6.34801 1.6704 6.39335 1.65664C6.46809 1.6338 6.5469 1.63161 6.62195 1.61066C6.6995 1.58907 6.78112 1.59001 6.85867 1.56593C6.89651 1.55435 6.9381 1.5603 6.97907 1.55091C7.04286 1.53621 7.11197 1.54372 7.17671 1.53121C7.25332 1.51619 7.3315 1.52808 7.40624 1.51494C7.5404 1.49117 7.67424 1.50681 7.80777 1.50212C7.89595 1.49899 7.98476 1.49962 8.07295 1.50212C8.18084 1.50525 8.28904 1.50681 8.39599 1.51901C8.48667 1.52933 8.57799 1.53746 8.66774 1.55123C8.76468 1.56593 8.86225 1.57813 8.95919 1.59533C9.17653 1.6338 9.39324 1.67853 9.6037 1.74234C9.81853 1.8074 10.0349 1.87184 10.2407 1.96474C10.2704 1.97819 10.3007 1.98945 10.3308 2.00196C10.3304 2.03324 10.3295 2.06452 10.3295 2.09549C10.3295 6.03074 10.3295 9.96568 10.3295 13.9009C10.3295 13.9294 10.3283 13.9582 10.3276 13.9866C10.2992 14.002 10.272 14.0204 10.2419 14.0317C10.0875 14.0896 9.93236 14.1468 9.77663 14.2015C9.71784 14.2222 9.65654 14.2369 9.59588 14.2516C9.51082 14.2725 9.42889 14.3041 9.34101 14.3151C9.29411 14.3207 9.24814 14.3357 9.20154 14.346C9.13056 14.3617 9.05863 14.3733 8.9889 14.3933C8.90102 14.4183 8.8094 14.417 8.72059 14.4374C8.66148 14.4508 8.59894 14.449 8.53827 14.4549C8.49793 14.459 8.45822 14.4665 8.41788 14.4699C8.37754 14.4734 8.33532 14.4624 8.29748 14.4855C8.29373 14.4877 8.28716 14.4855 8.28216 14.4859C8.0939 14.4912 7.90502 14.5046 7.71708 14.4984C7.59919 14.4943 7.48035 14.494 7.36277 14.4837C7.25895 14.4746 7.15419 14.4693 7.05193 14.4524C6.96281 14.4377 6.87275 14.4239 6.78362 14.4111C6.65854 14.3933 6.53564 14.3667 6.41212 14.3429C6.28484 14.3185 6.16038 14.2785 6.03529 14.2431C5.94398 14.2175 5.85267 14.1906 5.76292 14.1599C5.62814 14.114 5.49398 14.0652 5.36045 14.0157C5.34794 14.011 5.34044 13.9942 5.33043 13.9829C5.33043 13.9751 5.33012 13.9673 5.33012 13.9594C5.33012 9.97444 5.33012 5.98977 5.33012 2.00478V2.00446Z" fill="#FEFEFE"/>
<path d="M5.33012 2.00446C5.33012 5.98945 5.33012 9.97413 5.33012 13.9591C5.33012 13.9669 5.33012 13.9748 5.33043 13.9826C5.31042 13.9804 5.28821 13.9835 5.27101 13.9757C5.05524 13.8803 4.84384 13.7764 4.63745 13.6617C4.44857 13.5566 4.26813 13.4389 4.09082 13.3163C3.95761 13.2241 3.83033 13.124 3.70399 13.0226C3.47321 12.8371 3.25962 12.6332 3.05792 12.417C2.9491 12.3004 2.85091 12.174 2.74833 12.0517C2.59792 11.8718 2.46282 11.6807 2.33868 11.4821C2.27207 11.3754 2.20702 11.2678 2.14636 11.1577C2.07568 11.0298 2.00688 10.9006 1.94403 10.7686C1.81988 10.5081 1.71668 10.2388 1.62944 9.96349C1.55845 9.73985 1.49997 9.51307 1.45525 9.28223C1.4318 9.16149 1.41022 9.04107 1.39334 8.91939C1.37207 8.76643 1.35769 8.61348 1.34486 8.45958C1.3211 8.17682 1.33173 7.89405 1.33642 7.61129C1.33892 7.47335 1.363 7.33572 1.37864 7.19809C1.38896 7.10644 1.39865 7.01448 1.41272 6.92314C1.42586 6.83744 1.44118 6.75173 1.4612 6.66728C1.49434 6.52621 1.52843 6.38482 1.56783 6.24532C1.61224 6.08861 1.65633 5.93127 1.71199 5.77832C1.80206 5.5309 1.90556 5.28848 2.0269 5.05451C2.19483 4.73046 2.38308 4.41892 2.60355 4.12708C2.70612 3.99133 2.80838 3.85589 2.92346 3.73077C3.0426 3.60127 3.15799 3.46771 3.2837 3.34478C3.40504 3.22561 3.537 3.11707 3.66522 3.00478C3.8688 2.82649 4.08957 2.67134 4.31692 2.52495C4.46139 2.43174 4.60993 2.34572 4.76097 2.26346C4.92765 2.17243 5.09996 2.09455 5.27289 2.01729C5.29072 2.00947 5.31167 2.00853 5.33106 2.00415L5.33012 2.00446Z" fill="#3E8C38"/>
<path d="M10.3276 13.9857C10.3283 13.9572 10.3295 13.9285 10.3295 13.9C10.3295 9.96475 10.3295 6.0298 10.3295 2.09455C10.3295 2.06327 10.3301 2.03199 10.3308 2.00102C10.429 2.0445 10.5284 2.08516 10.6257 2.13146C10.9581 2.28973 11.277 2.47178 11.5751 2.68854C11.7105 2.78707 11.8415 2.89155 11.9735 2.99477C12.1611 3.14209 12.335 3.30537 12.4998 3.47772C12.6355 3.61973 12.764 3.76799 12.8882 3.92032C13.0089 4.06828 13.1193 4.22373 13.2284 4.37982C13.305 4.4893 13.3735 4.6044 13.4398 4.72045C13.5198 4.86089 13.598 5.00259 13.6693 5.14773C13.7853 5.3842 13.8851 5.62786 13.972 5.87685C14.0521 6.10581 14.1146 6.33947 14.1715 6.57469C14.2009 6.69637 14.2163 6.82117 14.2388 6.94441C14.2613 7.06828 14.2754 7.19277 14.2879 7.3182C14.3019 7.45927 14.3157 7.60003 14.3176 7.74204C14.3188 7.84025 14.3357 7.93878 14.3279 8.03606C14.3173 8.16806 14.322 8.30006 14.3138 8.43175C14.3069 8.54466 14.2998 8.65789 14.2822 8.76956C14.2475 8.99165 14.215 9.21373 14.165 9.43362C14.1084 9.68292 14.0386 9.92784 13.9542 10.1681C13.9001 10.322 13.836 10.4727 13.7694 10.6219C13.7006 10.7764 13.6284 10.93 13.5486 11.0792C13.4188 11.322 13.2712 11.554 13.1114 11.7786C12.9979 11.9385 12.8797 12.0946 12.7502 12.2406C12.6023 12.4077 12.4463 12.5688 12.2862 12.7242C11.9706 13.0304 11.6185 13.2919 11.247 13.5256C11.0078 13.676 10.7564 13.8049 10.499 13.9216C10.444 13.9466 10.3927 13.9851 10.3279 13.9857H10.3276Z" fill="#CB2B34"/>
</svg>
