<svg
  width="80px"
  height="80px"
  viewBox="0 0 80 80"
  version="1.1"
  xmlns="http://www.w3.org/2000/svg"
  xmlns:xlink="http://www.w3.org/1999/xlink"
>
  <g id="Page-1" stroke="none" stroke-width="1" fill="none" fill-rule="evenodd">
    <g id="play" fill-rule="nonzero">
      <path
        d="M40,0 C17.9,0 0,17.9 0,40 C0,62.1 17.9,80 40,80 C62.1,80 80,62.1 80,40 C80,17.9 62.1,0 40,0 Z"
        id="Path"
        fill="#00A1B0"
      ></path>
      <path
        d="M32,56 L32,24 C32,23.4477153 32.4477153,23 33,23 C33.2163702,23 33.4269038,23.0701779 33.6,23.2 L54.9333333,39.2 C55.3751611,39.5313708 55.4647042,40.1581722 55.1333333,40.6 C55.0764791,40.6758057 55.009139,40.7431458 54.9333333,40.8 L33.6,56.8 C33.1581722,57.1313708 32.5313708,57.0418278 32.2,56.6 C32.0701779,56.4269038 32,56.2163702 32,56 Z"
        id="Path"
        fill="#FFFFFF"
      ></path>
    </g>
  </g>
</svg>
