
<svg width="16px" height="16px" viewBox="0 0 16 16" version="1.1" xmlns="http://www.w3.org/2000/svg" xmlns:xlink="http://www.w3.org/1999/xlink">
    <g id="Page-1" stroke="none" stroke-width="1" fill="none" fill-rule="evenodd">
        <path d="M8,0 C12.4180967,0 16,3.58094324 16,8 C16,12.4180967 12.4190568,16 8,16 C3.58190328,16 0,12.4190568 0,8 C0,3.58190328 3.58094324,0 8,0 Z M12.1521661,5.02100084 C11.8324733,4.71570863 11.3265331,4.72818913 11.0212408,5.04788192 L7.01788072,9.24132965 L4.97875915,7.10428417 L4.90483619,7.03708148 C4.59666387,6.78555142 4.1425657,6.79707188 3.84783391,7.07836313 C3.52814113,7.38365535 3.51566063,7.88959558 3.82095284,8.20928837 L6.43897756,10.9521181 L6.51578063,11.0231609 C6.83451338,11.2804512 7.30589224,11.2574103 7.59678387,10.9521181 L12.1790472,6.15192608 L12.2433697,6.075123 C12.4804992,5.75639026 12.4478579,5.30325213 12.1521661,5.02100084 Z" id="Shape" fill="#171717" fill-rule="nonzero"></path>
    </g>
</svg>