
<svg width="16px" height="16px" viewBox="0 0 16 16" version="1.1" xmlns="http://www.w3.org/2000/svg" xmlns:xlink="http://www.w3.org/1999/xlink">
    <g id="Page-1" stroke="none" stroke-width="1" fill="none" fill-rule="evenodd">
        <g id="desktop-icons-24-px-error" fill="#171717" fill-rule="nonzero">
            <path d="M8,0 C12.4180967,0 16,3.58094324 16,8 C16,12.4180967 12.4190568,16 8,16 C3.58190328,16 0,12.4190568 0,8 C0,3.58190328 3.58094324,0 8,0 Z M11.7527901,4.22128885 C11.4330973,3.91599664 10.9271571,3.9275171 10.6218649,4.24720989 L8.1449658,6.84027361 L5.66902676,4.24816993 L5.58934357,4.17424697 C5.28213129,3.92847714 4.83091324,3.94191768 4.53810152,4.22128885 C4.24336973,4.5025801 4.21072843,4.95571823 4.44689788,5.27541102 L4.51218049,5.35221409 L7.03900156,8 L4.51218049,10.6487459 L4.44689788,10.725549 C4.21072843,11.0452418 4.24336973,11.4983799 4.53810152,11.7796712 C4.85779431,12.0849634 5.36373455,12.0734429 5.66902676,11.7537502 L8.14592584,9.15876635 L10.6218649,11.7537502 L10.7015481,11.8267131 C11.0087604,12.0724829 11.4599784,12.0590424 11.7527901,11.7796712 C12.0475219,11.4983799 12.0801632,11.0452418 11.8439938,10.725549 L11.7787111,10.6487459 L9.25093004,8 L11.7787111,5.35317413 L11.8439938,5.27637105 C12.0801632,4.95667827 12.0475219,4.50354014 11.7527901,4.22224889 L11.7527901,4.22128885 Z" id="Shape"></path>
        </g>
    </g>
</svg>