<svg xmlns="http://www.w3.org/2000/svg" width="29" height="20">
  <path fill="#00A1B0" fill-rule="nonzero" d="M27.33 0H1.611C.722 0 0 .723 0 1.612v16.776C0 19.278.723 20 1.612 20h25.717c.89 0 1.612-.723 1.612-1.612V1.612C28.941.722 28.218 0 27.33 0zM1.98 1.303h24.98a.74.74 0 01.748.7l-12.603 10.08c-.338.27-.931.27-1.27 0L1.234 2.003a.74.74 0 01.747-.7zm-.746 2.305l8.12 6.67-8.12 6.67V3.608zm25.48 15.358H2.166a.732.732 0 01-.734-.697l9.15-7.423 2.724 2.209a1.8 1.8 0 001.133.386c.408 0 .815-.128 1.133-.386l2.723-2.209 9.151 7.423a.73.73 0 01-.734.697zm1.072-1.854l-8.32-6.834 8.32-6.834v13.668z"/>
</svg>