<svg xmlns="http://www.w3.org/2000/svg" width="20" height="20" viewBox="0 0 20 20" class="injected-svg" data-src="/static/ec7879365d428592c53b0fcd8b2992d7/ico_instagram.svg" xmlns:xlink="http://www.w3.org/1999/xlink">
    <g fill="none" fill-rule="evenodd">
        <g fill="#FFF">
            <g>
                <g>
                    <path d="M18.14 14.038c-.042.976-.207 1.507-.342 1.86-.183.465-.4.8-.748 1.147-.353.353-.682.571-1.153.748-.347.141-.877.3-1.854.347-1.053.047-1.371.06-4.044.06-2.666 0-2.984-.013-4.037-.06-.977-.047-1.507-.206-1.86-.347-.465-.177-.8-.395-1.148-.748-.352-.347-.565-.682-.747-1.148-.135-.352-.3-.883-.347-1.86-.048-1.052-.06-1.364-.06-4.037 0-2.672.012-2.99.06-4.043.047-.971.212-1.501.347-1.854.182-.471.395-.8.747-1.154.348-.347.683-.565 1.148-.747.353-.136.883-.3 1.86-.342 1.053-.047 1.371-.058 4.037-.058 2.673 0 2.99.01 4.044.058.977.041 1.507.206 1.854.342.47.182.8.4 1.153.747.347.353.565.683.748 1.154.135.353.3.883.341 1.854.053 1.053.059 1.371.059 4.043 0 2.673-.006 2.985-.059 4.038zm1.335-10.589c-.253-.659-.594-1.218-1.153-1.771-.554-.56-1.113-.9-1.772-1.154-.636-.247-1.36-.418-2.425-.464C13.06.012 12.718 0 9.999 0 7.286 0 6.945.012 5.88.06 4.815.106 4.084.277 3.45.524c-.653.253-1.213.595-1.771 1.154C1.124 2.23.783 2.79.524 3.449.277 4.085.112 4.81.059 5.874.01 6.945 0 7.281 0 10c0 2.713.011 3.055.059 4.12.053 1.065.218 1.795.465 2.43.259.66.6 1.213 1.154 1.772.558.554 1.118.895 1.771 1.154.635.247 1.366.418 2.43.465C6.945 19.988 7.286 20 10 20c2.72 0 3.06-.012 4.126-.059 1.066-.047 1.79-.218 2.425-.465.66-.259 1.218-.6 1.772-1.154.559-.559.9-1.112 1.153-1.771.247-.636.418-1.366.465-2.431.053-1.065.059-1.407.059-4.12 0-2.719-.006-3.055-.06-4.126-.046-1.065-.217-1.789-.464-2.425zM10 13.331c-1.836 0-3.33-1.49-3.33-3.33 0-1.843 1.494-3.338 3.33-3.338 1.842 0 3.338 1.495 3.338 3.337s-1.496 3.331-3.338 3.331zm0-8.47c-2.837 0-5.132 2.302-5.132 5.14 0 2.836 2.295 5.131 5.132 5.131 2.838 0 5.139-2.295 5.139-5.132 0-2.837-2.301-5.138-5.139-5.138zm4.138-.199c0-.665.541-1.201 1.2-1.201.665 0 1.202.536 1.202 1.201 0 .659-.537 1.2-1.201 1.2-.66 0-1.201-.541-1.201-1.2z" transform="translate(-185.000000, -581.000000) translate(149.000000, 581.000000) translate(36.000000, 0.000000)"></path>
                </g>
            </g>
        </g>
    </g>
</svg>
