<svg xmlns="http://www.w3.org/2000/svg" width="20" height="20" viewBox="0 0 20 20" class="injected-svg" data-src="/static/d4989515288cbb4ad257c8c64a8b85df/ico_linkedin.svg" xmlns:xlink="http://www.w3.org/1999/xlink">
    <g fill="none" fill-rule="evenodd">
        <g fill="#FFF">
            <g>
                <g>
                    <path d="M4.164 4.373c-.446.42-1.035.63-1.766.63h-.019c-.706 0-1.279-.21-1.719-.63-.44-.42-.66-.939-.66-1.56 0-.631.226-1.154.678-1.568.453-.413 1.038-.62 1.757-.62.719 0 1.295.207 1.729.62.433.414.656.937.669 1.569 0 .62-.223 1.14-.67 1.56zM.59 19.375h4.128V7.049H.59v12.326zm15.116 0H20v-7.26c0-1.872-.452-3.289-1.357-4.25-.904-.96-2.1-1.44-3.587-1.44-1.663 0-2.945.694-3.848 2.079V6.717H6.915c.037.802.037 5.022 0 12.658h4.293v-7.077c0-.462.043-.802.13-1.02.186-.427.465-.789.837-1.086.371-.298.83-.447 1.375-.447 1.438 0 2.156.955 2.156 2.863v6.767z" transform="translate(-221.000000, -581.000000) translate(149.000000, 581.000000) translate(72.000000, 0.000000)"></path>
                </g>
            </g>
        </g>
    </g>
</svg>
