<svg xmlns="http://www.w3.org/2000/svg" width="20" height="18" viewBox="0 0 20 18" class="injected-svg" data-src="/static/15000d990e24a9ba654699c012f22ff9/ico_twitter.svg" xmlns:xlink="http://www.w3.org/1999/xlink">
    <g fill="none" fill-rule="evenodd">
        <g fill="#FFF">
            <g>
                <path d="M6.287 18.292c-2.314 0-4.47-.702-6.287-1.895 2.174.267 4.349-.353 6.075-1.738-1.8-.037-3.314-1.254-3.834-2.925.642.125 1.278.094 1.854-.068-1.976-.41-3.338-2.23-3.29-4.179.552.31 1.181.503 1.86.528C.834 6.76.314 4.289 1.391 2.395c2.024 2.546 5.046 4.223 8.456 4.397-.594-2.633 1.351-5.167 3.998-5.167 1.181 0 2.247.51 2.998 1.33.933-.187 1.811-.541 2.605-1.026-.31.988-.958 1.814-1.805 2.33.83-.1 1.623-.33 2.356-.66-.551.846-1.248 1.584-2.048 2.174.26 5.918-4.046 12.519-11.665 12.519z" transform="translate(-149.000000, -582.000000) translate(149.000000, 581.000000)"></path>
            </g>
        </g>
    </g>
</svg>
