<svg width="20px" height="20px" viewBox="0 0 20 20" version="1.1" xmlns="http://www.w3.org/2000/svg" xmlns:xlink="http://www.w3.org/1999/xlink" class="injected-svg" data-src="/static/c6add3cbffb478b148d78f52cd9cdc18/Youtube.svg">
    <title>Youtube</title>
    <g id="Symbols" stroke="none" stroke-width="1" fill="none" fill-rule="evenodd">
        <g id="Youtube">
            <rect id="Rectangle" x="0" y="0" width="20" height="20"></rect>
            <g id="Icon/Social/Twitter-Copy-5" transform="translate(0.000000, 3.000000)" fill="#FFFFFF">
                <path d="M17.8143711,13.6427288 C18.6749104,13.4112318 19.3526645,12.757505 19.5826963,11.8913607 C19.9524175,10.5025718 19.9950777,7.77908473 20,7.16907751 L20,6.92272713 C19.9950777,6.31271992 19.9524175,3.58923289 19.5826963,2.20044391 C19.3526645,1.33429965 18.6749126,0.652153099 17.8143723,0.420656073 C16.4436464,0.0509886149 11.4472844,0.00618043817 10.2561843,0.00074914402 L10.0169256,0 C10.0057434,0 10,0 10,0 L9.98307453,0 L9.98307453,0 L9.7438171,0.00074914402 C8.55272349,0.00618043817 3.55638615,0.0509886149 2.18562885,0.420656073 C1.32508853,0.652188864 0.647336047,1.33429965 0.417304269,2.20044391 C0.0475825314,3.58923289 0.00492233083,6.31271992 0,6.92272713 L0,7.16907751 C0.00492233083,7.77908473 0.0475825314,10.5025718 0.417304269,11.8913607 C0.647336047,12.7575039 1.32508853,13.4112318 2.18562885,13.6427277 C3.55638615,14.0123961 8.55272349,14.0572044 9.7438171,14.0626357 L10.2561829,14.0626357 C11.4472765,14.0572044 16.4436138,14.0123962 17.8143711,13.6427288 Z M7.95440082,10.0198322 L7.95440082,4.07197242 L13.1819885,7.04597609 L7.95440082,10.0198322 Z" id="-1"></path>
            </g>
        </g>
    </g>
</svg>
